<svg id="Layer_1" enable-background="new 0 0 65 65" height="512" viewBox="0 0 65 65" width="512" xmlns="http://www.w3.org/2000/svg"><g><g><g><g><path d="m31.623 64.505c-5.756 0-15.821-1.177-19.332-6.195-2.434-3.479-1.965-6.443-2.124-26.796-.02-2.59-.044-5.526.874-8.204 1.048-3.056 3.241-5.286 5.867-5.965.268-.072.54.092.609.358.069.268-.092.541-.359.609-2.707.701-4.446 3.208-5.172 5.321-.862 2.516-.84 5.238-.819 7.872.159 20.334-.269 23.068 1.943 26.231 1.47 2.101 4.041 3.539 8.092 4.524 15.398 3.749 30.168-2.026 32.008-5.324.663-1.189.661-2.68.659-3.996l-.034-23.382c-.004-2.246-.008-4.569-.658-6.727-.707-2.346-2.157-4.163-3.978-4.985-.251-.114-.363-.41-.25-.662.114-.251.41-.363.662-.25 2.084.941 3.732 2.985 4.522 5.607.693 2.299.697 4.696.701 7.015l.034 23.382c.002 1.367.004 3.067-.786 4.485-.917 1.643-2.707 2.595-4.339 3.31-5.704 2.501-11.906 3.772-18.12 3.772z"/></g><g><path d="m32.043 12.776c-4.102 0-8.128-.607-11.968-1.804-1.134-.353-4.582-1.428-4.593-4.384-.009-2.204 2.273-3.075 4.151-3.765 4.186-1.545 8.705-2.329 13.432-2.329 4.628 0 9.254.746 13.75 2.217.974.318 1.991.69 2.794 1.432.787.726 1.394 1.994.975 3.189-.396 1.127-1.509 1.736-2.547 2.183-4.957 2.134-10.489 3.261-15.994 3.261zm1.023-11.281c-4.608 0-9.011.763-13.086 2.267-1.449.532-3.503 1.239-3.497 2.823.006 1.517 1.241 2.608 3.89 3.433 14.089 4.391 28.472-.742 29.269-3.016.267-.763-.181-1.635-.709-2.123-.655-.604-1.558-.932-2.427-1.216-4.397-1.439-8.919-2.168-13.44-2.168z"/></g><g><path d="m32.201 16.672c-7.144 0-13.375-1.282-15.449-3.211-1.957-1.82-2.527-5.485-1.196-7.69.144-.237.452-.312.687-.17.236.142.312.45.169.687-1.091 1.808-.594 4.938 1.023 6.441 3.029 2.818 16.435 4.122 27.186 1.569 1.917-.456 4.238-1.214 5.181-3.048.846-1.649.391-3.283-.138-5.175l.953-.306c.57 2.044 1.099 3.94.074 5.938-1.129 2.197-3.714 3.059-5.84 3.564-4.105.974-8.53 1.401-12.65 1.401z"/></g><g><path d="m33.577 21.818c-4.513 0-9.021-.65-13.382-1.947-1.023-.304-2.172-.71-2.85-1.685-1.021-1.465-.419-3.471-.095-4.549.079-.265.362-.413.622-.335.265.08.415.358.335.623-.38 1.269-.729 2.704-.042 3.69.493.709 1.453 1.042 2.315 1.298 7.912 2.353 16.324 2.529 24.33.511 1.055-.267 2.151-.586 2.952-1.299 1.237-1.104 1.482-3.186.534-4.546-.158-.227-.103-.539.124-.696.225-.156.539-.103.696.124 1.244 1.786.936 4.417-.689 5.865-.97.863-2.249 1.238-3.373 1.522-3.766.95-7.624 1.424-11.477 1.424z"/></g></g><g><g><path d="m21.892 47.457c-.861 0-1.744-.466-2.27-1.251-.545-.814-.714-1.89-.475-3.029.058-.271.323-.442.592-.387.271.057.443.322.387.592-.181.861-.062 1.688.327 2.268.417.624 1.199.945 1.817.751.676-.214 1.177-.969 1.489-2.243.741-3.035.585-6.332-.442-9.284-.09-.261.048-.545.309-.636.257-.09.546.047.637.308 1.089 3.131 1.255 6.629.468 9.849-.4 1.637-1.127 2.632-2.158 2.959-.221.069-.45.103-.681.103z"/></g><g><path d="m33.066 47.488c-.266 0-.487-.208-.499-.477-.171-3.645-1.048-7.302-2.544-10.64-1.504 2.994-2.544 6.184-3.096 9.499-.046.272-.306.456-.575.411-.272-.045-.456-.303-.411-.575.624-3.754 1.857-7.354 3.666-10.699.088-.164.265-.245.449-.262.188.004.357.112.44.28 1.815 3.698 2.877 7.827 3.069 11.94.014.276-.2.51-.476.523-.008 0-.015 0-.023 0z"/></g><g><path d="m35.834 46.481c-.264 0-.484-.206-.499-.473l-.593-10.748c-.011-.195.093-.378.265-.47.174-.091.382-.074.537.044 1.679 1.279 3.119 2.832 4.383 4.728.336-.749.66-1.516.976-2.264.436-1.031.886-2.098 1.368-3.115.097-.204.321-.318.541-.278.223.041.39.225.409.45.149 1.739.31 3.498.471 5.257.161 1.761.322 3.521.471 5.263.023.275-.181.517-.455.541-.284.021-.518-.18-.541-.456-.149-1.739-.31-3.498-.471-5.257-.103-1.119-.204-2.237-.304-3.351-.192.447-.382.894-.567 1.335-.438 1.036-.891 2.107-1.375 3.129-.079.166-.242.275-.426.285-.185.009-.356-.082-.453-.239-1.099-1.796-2.338-3.287-3.768-4.529l.53 9.619c.016.275-.196.511-.472.526-.008.003-.018.003-.027.003z"/></g><g><path d="m27.575 41.929c-.258 0-.477-.198-.497-.459-.022-.275.183-.517.457-.539l4.694-.382c.289-.018.518.183.539.458.022.275-.183.517-.457.539l-4.694.382c-.015 0-.029.001-.042.001z"/></g></g><g><path d="m10.254 36.009c-.204-.185-.22-.501-.035-.706 5.826-6.438 14.447-6.815 22.784-7.181 7.436-.326 15.127-.663 20.797-5.303.213-.175.528-.144.703.07s.144.529-.07.704c-5.927 4.851-13.786 5.195-21.386 5.529-8.507.373-16.541.725-22.086 6.853-.185.204-.502.22-.707.034z"/></g><g><path d="m10.541 54.753c-.193-.197-.189-.514.008-.707 2.947-2.888 7.223-3.634 10.289-3.75 6.395-.255 19.83 3.365 32.766-7.756.211-.181.526-.156.705.053.181.209.156.525-.053.705-13.248 11.39-26.912 7.762-33.38 7.997-2.891.11-6.908.801-9.628 3.465-.191.19-.508.194-.707-.007z"/></g></g><g><path d="m45.504 9.746-3.047-3.047c-.098-.098-.098-.256 0-.353.098-.098.256-.098.354 0l3.047 3.047c.098.098.098.256 0 .353-.097.097-.255.098-.354 0z"/></g><g><path d="m47.248 8.826-3.085-3.085c-.098-.098-.098-.256 0-.353.098-.098.256-.098.354 0l3.085 3.085c.098.098.098.256 0 .354-.097.096-.255.097-.354-.001z"/></g><g><path d="m48.567 7.711-2.622-2.621c-.098-.098-.098-.256 0-.354s.256-.098.354 0l2.622 2.621c.098.098.098.256 0 .354-.098.097-.256.098-.354 0z"/></g><g><path d="m43.275 10.197-2.435-2.435c-.098-.098-.098-.256 0-.354s.256-.098.354 0l2.435 2.435c.098.098.098.256 0 .353-.098.098-.256.1-.354.001z"/></g><g><path d="m41.402 10.483-2.104-2.104c-.098-.098-.098-.256 0-.354.099-.099.257-.097.354 0l2.104 2.104c.098.098.098.256 0 .353-.097.097-.255.1-.354.001z"/></g><g><path d="m39.191 11.013-1.949-1.949c-.098-.098-.098-.256 0-.353.098-.098.256-.098.354 0l1.949 1.949c.098.098.098.256 0 .354-.098.096-.256.097-.354-.001z"/></g><g><path d="m36.703 11.677-1.688-1.687c-.098-.098-.098-.256 0-.354s.256-.098.354 0l1.688 1.688c.098.098.098.256 0 .354-.098.096-.256.098-.354-.001z"/></g><g><path d="m34.409 11.816-1.415-1.415c-.098-.098-.098-.256 0-.354s.256-.098.354 0l1.415 1.415c.098.098.098.256 0 .353-.098.098-.256.099-.354.001z"/></g><g><path d="m32.077 11.779-1.174-1.173c-.098-.098-.098-.256 0-.354.097-.097.255-.099.354 0l1.174 1.173c.098.098.098.256 0 .353-.1.1-.258.098-.354.001z"/></g><g><path d="m29.929 11.826-1.287-1.288c-.098-.098-.098-.256 0-.354.099-.099.257-.097.354 0l1.287 1.288c.098.098.098.256 0 .354-.097.096-.255.099-.354 0z"/></g><g><path d="m27.875 11.553-.844-.844c-.098-.098-.098-.256 0-.354s.256-.098.354 0l.844.844c.098.098.098.256 0 .354-.097.097-.255.098-.354 0z"/></g><g><path d="m25.735 11.434-.931-.931c-.098-.098-.098-.256 0-.353.098-.098.256-.098.354 0l.931.931c.234.234-.122.586-.354.353z"/></g><g><path d="m24.564 11.292c-.098-.098-.098-.256 0-.354l1.367-1.366c.099-.098.257-.097.354 0 .098.098.098.256 0 .353l-1.367 1.366c-.097.097-.255.099-.354.001z"/></g><g><path d="m26.278 11.452 2.025-2.026c.098-.098.256-.098.353 0 .098.098.098.256 0 .354l-2.025 2.026c-.234.234-.586-.121-.353-.354z"/></g><g><path d="m28.813 11.908c-.098-.098-.098-.256 0-.354l2.481-2.481c.098-.098.256-.098.354 0s.098.256 0 .354l-2.481 2.481c-.098.097-.256.098-.354 0z"/></g><g><path d="m31.829 11.874c-.098-.098-.098-.256 0-.354l3.851-3.851c.098-.098.256-.098.354 0s.098.256 0 .354l-3.851 3.851c-.098.097-.256.098-.354 0z"/></g><g><path d="m35.495 11.383 3.921-3.92c.098-.098.256-.098.354 0s.098.256 0 .353l-3.921 3.92c-.235.235-.587-.12-.354-.353z"/></g><g><path d="m39.367 11.247 4.112-4.112c.098-.098.256-.098.354 0s.098.256 0 .353l-4.113 4.112c-.234.234-.586-.121-.353-.353z"/></g><g><path d="m44.164 9.476c-.098-.098-.098-.256 0-.354l3.173-3.173c.098-.098.256-.098.354 0s.098.256 0 .354l-3.173 3.173c-.098.097-.256.098-.354 0z"/></g><g><path d="m45.294 6.255c-.098-.098-.098-.256 0-.354l2.327-2.327c.098-.098.256-.098.354 0s.098.256 0 .353l-2.327 2.327c-.097.098-.255.099-.354.001z"/></g><g><path d="m48.378 6.049c-.098-.098-.098-.256 0-.353l1.201-1.201c.098-.098.256-.098.354 0s.098.256 0 .353l-1.201 1.201c-.097.097-.255.099-.354 0z"/></g><g><path d="m51.254 59.363-5.46-5.46c-.098-.098-.098-.256 0-.354s.256-.098.354 0l5.46 5.46c.098.098.098.256 0 .354-.097.097-.255.098-.354 0z"/></g><g><path d="m52.74 58.006-5.065-5.066c-.098-.098-.098-.256 0-.354s.256-.098.354 0l5.065 5.066c.098.098.098.256 0 .353-.098.098-.256.099-.354.001z"/></g><g><path d="m53.587 55.507-3.988-3.988c-.098-.098-.098-.256 0-.354s.256-.098.354 0l3.988 3.988c.098.098.098.256 0 .354-.097.097-.255.099-.354 0z"/></g><g><path d="m53.558 51.799c-.064 0-.128-.024-.177-.073l-2.132-2.132c-.098-.098-.098-.256 0-.354s.256-.098.354 0l2.132 2.132c.098.098.098.256 0 .354-.049.048-.112.073-.177.073z"/></g><g><path d="m54.66 49.462c-.065 0-.128-.024-.177-.073l-1.583-1.583c-.098-.098-.098-.256 0-.354s.256-.098.354 0l1.583 1.583c.098.098.098.256 0 .354-.049.049-.113.073-.177.073z"/></g><g><path d="m48.693 60.193-5.007-5.007c-.098-.098-.098-.256 0-.354s.256-.098.354 0l5.007 5.007c.098.098.098.256 0 .353-.098.098-.256.1-.354.001z"/></g><g><path d="m45.836 61.509-4.855-4.856c-.098-.098-.098-.256 0-.354s.256-.098.353 0l4.855 4.856c.098.098.098.256 0 .354-.096.097-.254.099-.353 0z"/></g><g><path d="m42.838 62.315-4.7-4.699c-.098-.098-.098-.256 0-.354s.256-.098.353 0l4.7 4.699c.098.098.098.256 0 .354-.096.098-.254.099-.353 0z"/></g><g><path d="m40.065 63.301-4.447-4.447c-.098-.098-.098-.256 0-.354s.256-.098.353 0l4.447 4.447c.098.098.098.256 0 .354-.097.097-.255.099-.353 0z"/></g><g><path d="m36.788 63.875-4.15-4.15c-.098-.098-.098-.256 0-.354s.256-.098.354 0l4.15 4.15c.098.098.098.256 0 .354-.098.097-.256.098-.354 0z"/></g><g><path d="m33.44 63.919-3.278-3.278c-.098-.098-.098-.256 0-.354s.256-.098.354 0l3.278 3.278c.098.098.098.256 0 .354s-.256.099-.354 0z"/></g><g><path d="m29.658 63.759-2.66-2.659c-.098-.098-.098-.256 0-.354s.256-.098.354 0l2.659 2.659c.098.098.098.256 0 .354-.097.097-.255.099-.353 0z"/></g><g><path d="m27.04 63.422c-.064 0-.128-.025-.177-.073l-1.928-1.928c-.098-.098-.098-.256 0-.353.098-.098.256-.098.354 0l1.928 1.928c.098.098.098.256 0 .353-.049.048-.112.073-.177.073z"/></g><g><path d="m23.982 62.85-2.071-2.071c-.098-.098-.098-.256 0-.354s.256-.098.354 0l2.071 2.071c.098.098.098.256 0 .354-.098.097-.256.098-.354 0z"/></g><g><path d="m21.882 62.939c-.064 0-.128-.024-.177-.073l-1.766-1.766c-.098-.098-.098-.256 0-.354s.256-.098.354 0l1.767 1.766c.157.158.043.427-.178.427z"/></g><g><path d="m19.122 61.921c-.164 0-1.221-1.118-1.337-1.234-.098-.098-.098-.256 0-.354.098-.099.256-.097.354 0l1.16 1.161c.098.098.098.256 0 .354-.05.049-.114.073-.177.073z"/></g><g><path d="m17.968 61.342 1.33-1.33c.098-.098.256-.098.353 0 .098.098.098.256 0 .354l-1.33 1.33c-.234.234-.585-.121-.353-.354z"/></g><g><path d="m19.801 62.796c-.098-.098-.098-.256 0-.354l3.041-3.041c.098-.098.256-.098.354 0s.098.256 0 .354l-3.041 3.041c-.097.097-.256.099-.354 0z"/></g><g><path d="m22.46 63.346c-.098-.098-.098-.256 0-.354l4.24-4.24c.098-.098.256-.098.354 0s.098.256 0 .354l-4.24 4.24c-.097.097-.255.098-.354 0z"/></g><g><path d="m27.136 63.942c-.098-.098-.098-.256 0-.354l4.969-4.968c.098-.098.256-.098.354 0s.098.256 0 .354l-4.969 4.968c-.097.097-.256.099-.354 0z"/></g><g><path d="m31.766 63.851c-.098-.098-.098-.256 0-.354l5.904-5.904c.098-.098.256-.098.353 0 .098.098.098.256 0 .354l-5.904 5.904c-.096.097-.255.098-.353 0z"/></g><g><path d="m37.084 63.805c-.098-.098-.098-.256 0-.354l8.657-8.657c.098-.098.256-.098.354 0s.098.256 0 .354l-8.657 8.657c-.097.097-.255.098-.354 0z"/></g><g><path d="m42.218 61.297 7.281-7.281c.098-.098.256-.098.354 0s.098.256 0 .354l-7.281 7.281c-.235.234-.586-.122-.354-.354z"/></g><g><path d="m48.866 59.862c-.098-.098-.098-.256 0-.354l4.405-4.405c.232-.232.588.119.354.354l-4.405 4.405c-.098.097-.256.099-.354 0z"/></g><g><path d="m50.235 52.922c-.064 0-.128-.025-.177-.073-.098-.098-.098-.256 0-.353l2.334-2.335c.098-.098.256-.098.354 0s.098.256 0 .354l-2.334 2.334c-.049.048-.113.073-.177.073z"/></g><g><path d="m51.663 53.903c-.098-.098-.098-.256 0-.354l2.166-2.167c.097-.097.255-.099.354 0 .098.098.098.256 0 .354l-2.166 2.167c-.1.099-.258.096-.354 0z"/></g><g><path d="m52.206 49.392c-.064 0-.128-.024-.177-.073-.098-.098-.098-.256 0-.353l1.524-1.524c.098-.098.256-.098.354 0s.098.256 0 .354l-1.524 1.524c-.05.047-.114.072-.177.072z"/></g><g><path d="m36.351 61.925c-.098-.098-.098-.256 0-.354l5.495-5.496c.098-.098.256-.098.354 0s.098.256 0 .354l-5.495 5.496c-.098.097-.256.099-.354 0z"/></g><g><path d="m17.159 23.366-3.599-3.599c-.098-.098-.098-.256 0-.354s.256-.098.354 0l3.599 3.599c.098.098.098.256 0 .353-.098.098-.256.099-.354.001z"/></g><g><path d="m19.427 22.747-3.759-3.759c-.098-.098-.098-.256 0-.354s.256-.098.354 0l3.759 3.759c.098.098.098.256 0 .354-.097.097-.256.098-.354 0z"/></g><g><path d="m23.623 23.137-3.507-3.507c-.098-.098-.098-.256 0-.354s.256-.098.353 0l3.507 3.507c.098.098.098.256 0 .354-.097.097-.255.098-.353 0z"/></g><g><path d="m27.924 24.001-3.271-3.271c-.098-.098-.098-.256 0-.354s.256-.098.354 0l3.271 3.271c.098.098.098.256 0 .354-.097.097-.255.098-.354 0z"/></g><g><path d="m31.439 23.802-2.201-2.201c-.098-.098-.098-.256 0-.354s.256-.098.354 0l2.201 2.201c.098.098.098.256 0 .354-.098.097-.256.099-.354 0z"/></g><g><path d="m34.442 23.412-1.812-1.811c-.098-.098-.098-.256 0-.354s.256-.098.354 0l1.812 1.811c.098.098.098.256 0 .354-.098.097-.256.098-.354 0z"/></g><g><path d="m14.639 25.431-2.913-2.913c-.098-.098-.098-.256 0-.354s.256-.098.354 0l2.913 2.913c.098.098.098.256 0 .354-.097.097-.256.098-.354 0z"/></g><g><path d="m13.398 27.811-2.451-2.451c-.098-.098-.098-.256 0-.354s.256-.098.353 0l2.451 2.451c.098.098.098.256 0 .354-.097.097-.255.098-.353 0z"/></g><g><path d="m12.241 30.55-1.706-1.706c-.098-.098-.098-.256 0-.354s.256-.098.353 0l1.706 1.706c.098.098.098.256 0 .354-.097.097-.255.099-.353 0z"/></g><g><path d="m11.6 32.11-.837-.836c-.098-.098-.098-.256 0-.354s.256-.098.354 0l.837.836c.098.098.098.256 0 .354-.099.099-.258.097-.354 0z"/></g><g><path d="m10.947 32.237c-.098-.098-.098-.256 0-.354l2.457-2.458c.098-.098.256-.098.354 0s.098.256 0 .354l-2.458 2.458c-.097.097-.255.098-.353 0z"/></g><g><path d="m11.169 28.643c-.064 0-.128-.025-.177-.073-.098-.098-.098-.256 0-.354l4.243-4.244c.098-.098.256-.098.354 0s.098.256 0 .354l-4.243 4.244c-.049.048-.112.073-.177.073z"/></g><g><path d="m13.553 28.872c-.064 0-.128-.024-.177-.073-.098-.098-.098-.256 0-.354l4.162-4.162c.098-.098.256-.098.354 0s.098.256 0 .354l-4.162 4.162c-.049.048-.112.073-.177.073z"/></g><g><path d="m13.834 23.16c-.098-.098-.098-.256 0-.353l3.156-3.156c.098-.098.256-.098.353 0 .098.098.098.256 0 .354l-3.156 3.156c-.096.096-.254.097-.353-.001z"/></g><g><path d="m17.869 22.714 3.354-3.354c.098-.098.256-.098.354 0s.098.256 0 .354l-3.354 3.354c-.234.233-.59-.118-.354-.354z"/></g><g><path d="m22.362 23.48c-.098-.098-.098-.256 0-.354l2.607-2.607c.098-.098.256-.098.354 0s.098.256 0 .353l-2.607 2.607c-.098.099-.256.1-.354.001z"/></g><g><path d="m26.166 23.402 2.529-2.53c.098-.098.256-.098.354 0s.098.256 0 .354l-2.529 2.53c-.234.234-.586-.121-.354-.354z"/></g><g><path d="m30.568 23.985c-.098-.098-.098-.256 0-.354l2.159-2.159c.098-.098.256-.098.354 0s.098.256 0 .354l-2.159 2.159c-.098.097-.256.098-.354 0z"/></g></g></svg>